# xmcd
#
# Track frame offsets:
#	150
#	11985
#	22547
#	33828
#	45362
#	56094
#	66542
#	77034
#	88710
#	99572
#
# Disc length: 1483 seconds
#
# Revision: 2
# Processed by: cddbd v1.4PL0 Copyright (c) Steve Scherf et al.
# Submitted via: EasyCDDAExtractor 6.0.0.1
#
DISCID=7405c90a
DTITLE=Patsy Cline - Walkin` after Midnight
DYEAR=1900
DGENRE=
TTITLE0=Walking after Midnight
TTITLE1=Lovesick Blues
TTITLE2=Hungry for Love
TTITLE3=Crazy Dream
TTITLE4=Honky Tonk Merry go round
TTITLE5=I love you honey
TTITLE6=Three cigarettes in the ashtray
TTITLE7=Let the teardrops fall
TTITLE8=I cried all the way to the altar
TTITLE9=If only I could stay asleep
EXTD=
EXTT0=
EXTT1=
EXTT2=
EXTT3=
EXTT4=
EXTT5=
EXTT6=
EXTT7=
EXTT8=
EXTT9=
PLAYORDER=
